<svg width="54" height="54" viewBox="0 0 54 54" fill="none" xmlns="http://www.w3.org/2000/svg">
<rect x="1" y="1" width="52" height="52" rx="26" stroke="black" stroke-width="2" stroke-miterlimit="3.99393" stroke-dasharray="8 8"/>
<path d="M30.6451 9.03447C30.4389 9.09571 30.2426 9.18629 30.0623 9.30344L16.6138 16.0277C16.2986 16.1196 16.0075 16.2796 15.761 16.4965C15.5145 16.7133 15.3186 16.9817 15.1873 17.2825C15.0559 17.5834 14.9922 17.9095 15.0008 18.2377C15.0093 18.5659 15.0898 18.8882 15.2366 19.1818C15.3835 19.4755 15.593 19.7333 15.8504 19.937C16.1079 20.1408 16.4069 20.2855 16.7264 20.3609C17.046 20.4363 17.3782 20.4406 17.6995 20.3735C18.0209 20.3064 18.3236 20.1695 18.5863 19.9726L32.0347 13.2483C32.5175 13.0082 32.8975 12.6022 33.1051 12.1047C33.3128 11.6071 33.3341 11.0514 33.1653 10.5394C32.9964 10.0274 32.6487 9.59342 32.1858 9.31701C31.7229 9.0406 31.1759 8.94029 30.6451 9.03447ZM35.1279 15.7587C34.9217 15.8199 34.7255 15.9105 34.5451 16.0277L16.6138 24.9933C16.2986 25.0853 16.0075 25.2453 15.761 25.4621C15.5145 25.679 15.3186 25.9473 15.1873 26.2482C15.0559 26.5491 14.9922 26.8751 15.0008 27.2033C15.0093 27.5315 15.0898 27.8538 15.2366 28.1475C15.3835 28.4411 15.593 28.6989 15.8504 28.9027C16.1079 29.1064 16.4069 29.2511 16.7264 29.3265C17.046 29.402 17.3782 29.4063 17.6995 29.3392C18.0209 29.2721 18.3236 29.1352 18.5863 28.9382L36.5176 19.9726C37.0003 19.7325 37.3803 19.3265 37.5879 18.8289C37.7956 18.3314 37.8169 17.7757 37.6481 17.2637C37.4792 16.7517 37.1315 16.3177 36.6686 16.0412C36.2057 15.7648 35.6587 15.6645 35.1279 15.7587ZM35.1279 24.7244C34.9217 24.7856 34.7255 24.8762 34.5451 24.9933L21.0966 31.7176C20.6628 31.951 20.318 32.3209 20.1155 32.77C19.9131 33.2191 19.8642 33.7224 19.9764 34.2021C20.0887 34.6818 20.3559 35.1111 20.7366 35.4237C21.1174 35.7363 21.5905 35.9147 22.0829 35.9314H31.0485C31.643 36.0265 32.2509 35.8816 32.7385 35.5285C33.2261 35.1754 33.5534 34.6431 33.6486 34.0486C33.7437 33.4542 33.5987 32.8463 33.2456 32.3587C32.8926 31.8711 32.3602 31.5437 31.7658 31.4486L36.5176 28.9382C37.0003 28.6981 37.3803 28.2921 37.5879 27.7946C37.7956 27.297 37.8169 26.7413 37.6481 26.2293C37.4792 25.7173 37.1315 25.2833 36.6686 25.0069C36.2057 24.7305 35.6587 24.6302 35.1279 24.7244ZM23.6519 40.4143C23.0574 40.5094 22.5251 40.8367 22.172 41.3243C21.8189 41.8119 21.674 42.4198 21.7691 43.0143C21.8642 43.6087 22.1915 44.1411 22.6791 44.4942C23.1667 44.8473 23.7746 44.9922 24.3691 44.8971H28.8519C29.4464 44.8971 30.0165 44.6609 30.4368 44.2406C30.8572 43.8202 31.0933 43.2501 31.0933 42.6557C31.0933 42.0612 30.8572 41.4911 30.4368 41.0707C30.0165 40.6504 29.4464 40.4143 28.8519 40.4143H24.3691C24.2349 40.4021 24.0999 40.4021 23.9657 40.4143C23.8761 40.4089 23.7863 40.4089 23.6967 40.4143H23.6519Z" fill="black"/>
</svg>
